<svg viewBox="0 0 1620 1028" xmlns="http://www.w3.org/2000/svg"><g id="a"></g><g id="b"><g id="c"><g><path fill="#ebf3fa" d="M63.46,1025.88s-143.12-257.01,13.51-535.26c138.97-246.88,358.23-50.57,482.48-301.78C728.87-153.75,1574.42-19.96,1467.34,507.12c-51.82,255.07,235.19,264.34,128.43,519.31l-1532.31-.54Z"></path><g><path fill="#82b378" d="M1131.66,512.3s-25.85-40.46,1.6-62.93c0,0,19.83-12.25,35.36-9.99,0,0-24.39,42.09-17.48,46.97,6.91,4.88,24.32-49.22,24.32-49.22,0,0,43.75-1.77,57.32,7.2,0,0-39.08,33.18-31.36,35.9,7.72,2.72,49.74-29.58,49.74-29.58,0,0,40.05,11.12,36.35,40.11-3.7,29-18.12,36.97-24.21,35.74-6.09-1.23-41.09-20.03-42.19-14.16-1.09,5.87,19.47,26.85,34.53,28.87,0,0-30.5,35.06-48.9,22.93-18.4-12.12-19.12-29.24-30.6-36.49-11.49-7.25-21.58-7.98-17.04-1.11,4.54,6.86,25.6,14.76,31.61,29.38,6.01,14.62,11.58,24.59-7.86,19.66-19.44-4.93-50.44-24.24-50.81-43.75l-.37-19.52Z"></path><g><path fill="#82b378" d="M1267.57,490.08s-109.67-13.11-135.92,22.23c0,0-6.37,18.59-23.81,34.66l-3.01,8.1s20.3-22.31,27.2-23.24c0,0-8.23-46.78,135.54-41.74Z"></path><path fill="#82b378" d="M1107.85,546.97s-24.69,18.87-28.27,55.56l4.26,.77s9.55-37.51,23.96-51.4c14.41-13.88,.06-4.93,.06-4.93Z"></path></g></g><g><path fill="#a8d29f" d="M1004.83,415.57s-57.32-37.9-30.57-89.34c0,0,21.4-31.58,44.33-39.7,0,0-12.23,76.7,0,78.51,12.23,1.8,8.41-86.63,8.41-86.63,0,0,60.38-34.29,84.07-31.58,0,0-37.45,74.9-25.22,73.09,12.23-1.8,54.26-77.6,54.26-77.6,0,0,61.9-13.54,71.84,29.78,9.94,43.31-6.11,64.97-15.29,67.68-9.17,2.71-68.02,1.8-66.49,10.83,1.53,9.02,41.27,23.46,63.43,15.34,0,0-24.46,71.29-56.55,67.68-32.1-3.61-42.03-27.07-61.9-28.88-19.87-1.8-34.39,4.51-24.46,10.83,9.93,6.32,43.56,2.07,59.61,18.18,16.05,16.11,29.04,26.04-.76,33.26-29.81,7.22-83.3,2.71-94-24.36l-10.7-27.07Z"></path><g><path fill="#82b378" d="M1183.66,285.62s-160.49,61.36-178.83,129.94c0,0,.76,30.68-15.28,65.87v13.54s16.81-46.02,25.98-52.34c0,0-35.92-59.56,168.13-157.02Z"></path><path fill="#82b378" d="M989.54,481.44s-24.75,44.38-10.64,98.4l6.37-2.02s-6.18-59.5,6.77-89.43c12.95-29.93-2.5-6.95-2.5-6.95Z"></path></g></g><g><path fill="#a8d29f" d="M702.56,434.99s66.7-33.33,42.67-93.53c0,0-20.21-37.67-44.5-49.85,0,0,5.53,85.8-8.06,86.03-13.59,.23-.32-96.14-.32-96.14,0,0-62.64-46.22-88.88-46.64,0,0,33.35,87.44,20.14,83.71-13.21-3.73-51.5-92.81-51.5-92.81,0,0-66.45-23.69-81.78,22.35-15.33,46.05,.03,72.07,9.8,76.35,9.77,4.28,74.35,11.71,71.75,21.38-2.6,9.67-47.63,19.81-71.09,7.73,0,0,19.48,81.62,55.03,82.26,35.55,.64,48.84-23.65,70.8-22.79,21.96,.87,37.22,9.87,25.69,15.37-11.54,5.5-47.95-3.97-67.19,11.39-19.24,15.36-34.5,24.38-2.58,36.55,31.92,12.18,91.01,14.89,105.51-13.25l14.5-28.14Z"></path><g><path fill="#82b378" d="M519.92,267s169.58,90.21,182.64,167.99c0,0-3.99,33.51,9.99,74.38l-1.39,14.83s-13.7-52.84-23.1-61.07c0,0,45.48-60.13-168.14-196.13Z"></path><path fill="#82b378" d="M712.55,509.36s22.57,52.17,1.56,109.35l-6.77-3.12s12.88-64.32,1.76-98.97c-11.12-34.65,3.45-7.26,3.45-7.26Z"></path></g></g><path fill="#82b378" d="M565.75,628.42c-11.79-20.08-13.1-38.78-13.1-38.78,0,0,32.62-27.65,13.39-56.73,0,0-14.83-17.45-29.22-20.53,0,0,11.87,45.6,4.55,47.68-7.32,2.08-10.13-51.94-10.13-51.94,0,0-38.66-15.95-52.89-12.39,0,0,27.09,42.46,19.55,42.36-7.53-.11-37.45-42.75-37.45-42.75,0,0-38.38-3.22-41.91,23.89-3.52,27.11,7.48,38.97,13.21,39.87,5.73,.9,41.42-4.4,41.01,1.2-.41,5.6-23.71,17.58-37.64,14.44,0,0,18.99,41.32,38.27,36.54,19.29-4.79,23.96-19.84,35.92-22.54,11.96-2.7,21.15-.04,15.48,4.6-5.67,4.64-26.34,4.78-35.15,15.86-8.81,11.08-16.13,18.16,2.39,20.14,18.52,1.98,50.75-5.09,55.68-22.39,.21-.75,.42-1.47,.62-2.16-.26,1.41-.62,2.16-.62,2.16,3.56,1.86,9.61,12.16,13.89,20.11,.63,1.37,1.6,3.24,3.03,5.78h0c.59,1.15,1.06,2.1,1.39,2.76,8.18,18,7.91,51.01,7.91,51.01l3.98,.71c5.44-33.95-12.17-58.9-12.17-58.9Z"></path><g><path fill="#2c3a64" d="M347.75,166.23c-.32-2.08-4.46-24.38-33.67-20.57,0,0,14.54-.44,17.92,6.56,0,0-10.86-7.5-18.42-3.19-7.56,4.31-10.2,21.5-9.59,26.9,.62,5.4,7.16,22.03,12.37,22.65,1.97,.23,4.15-.29,6.09-1.04-1.03,2.7-2.01,5.64-2.89,8.9-8.14,30.1,7.2,55.52,16.64,50.81,6.06-3.03,9.4,9.36,9.4,9.36l53.99-68.97s-29.22-51.05-51.84-31.4Z"></path><path fill="#2b478b" d="M418.09,996.89l-13.13,5.77s-57.04-93.41-64.06-175.59c-1.25-14.67-.84-28.89,1.88-42.01,0,0-.56-3.76-1.53-10.41-.45-3.1-1.01-6.84-1.64-11.11-1.85-12.54-4.41-29.71-7.32-49.26-6.71-44.98-15.41-102.47-22.16-144.74l3.54-1.34,38.28-14.58,7.91-29.67,28.51-8.86s6.37,14.71,12.06,84.19c1.05,9.11,2,19.17,2.72,30.07,2.22,33.27,2.38,74.54-2.71,121.72-1.31,12.08-2.96,24.55-5.01,37.36-1.5,9.39-1.73,22.19-1.09,36.89,2.87,67.18,23.76,171.59,23.76,171.59Z"></path><path fill="#233862" d="M403.14,629.35l-61.9,145.31c-.45-3.1-1.01-6.84-1.64-11.11-1.85-12.54-4.41-29.71-7.32-49.26-6.71-44.98-15.41-102.47-22.16-144.74l3.54-1.34,38.28-14.58,7.91-29.67,28.51-8.86s6.37,14.71,12.06,84.19c1.05,9.11,2,19.17,2.72,30.07Z"></path><path fill="#2b478b" d="M375.91,533.74l-1.43-14.51c-24.01,7.53-88.16-21.04-88.16-21.04,0,0-23.26,24.14-20.2,82.01,1.49,28.24,4.21,148.26,7.06,183.77,1.03,12.87,1.93,22.03,2.3,25.69,0,.02,0,.03,0,.03,.11,1.12-.22,2.17-.7,3.15-4.19,8.39-7.65,17.12-10.5,26.06-27.91,87.82,4.3,195.96,4.3,195.96l8.36-3.98s18.33-120.36,33.22-173.53c2.53-9.02,4.95-16.11,7.17-20.34,6.47-12.34,12.48-32.5,17.94-56.48,10.31-45.34,18.61-104.32,24.13-149.84,.76,.04,16.51-76.96,16.51-76.96Z"></path><path fill="#ffb27d" d="M414.62,417.43c.47,.57,.93,1.14,1.48,1.67,20.52,22.58,48.15,42.54,62.94,46.94,9.73,2.94,31.17-1,48.97-5.32,11.86-2.76,22.2-5.82,26.46-7.01,1.36-.37,2.12-.66,2.12-.66l-1.86-14.18s-10.67-1-23.93-2.76c-18.47-2.56-41.88-6.5-47.88-10.68-13.91-9.76-38.32-50.7-57.91-76.43-1.03-1.4-2.04-2.75-3.05-4.07-.74-.97-1.48-1.91-2.21-2.85-.15-.18-.34-.49-.58-.65-.9-1.02-1.67-1.97-2.41-2.81-.03-.1-.16-.18-.28-.27-3.48-4.13-9.58-9.14-9.58-9.14-3.42-2.3-6.24-2.75-8.22-.78,0,0-2.56,2.95-5.07,8.53-.53,1.17-1.06,2.45-1.56,3.85-.42,.77-.62,1.58-.82,2.4-1.66,5.15-2.87,11.62-2.65,19.16,.15,5.71,1.08,12.01,3.22,18.96,3.42,11.4,12.07,24.08,22.83,36.1Z"></path><path fill="#ffb27d" d="M396.75,357.63c-6.96,5.36-15.62,9.69-26.43,12.26-40.52,9.64-54.99-31.05-60.13-58.82,5.58-3.53,10.76-4.17,13.76-4.49,2.92-.31,5.99-.48,8.52-.54,4.62-3.94,11.75-20.45,13.86-46.38l1.88,.66,31.49,11.31s-1.74,11.86-2.72,23.09c-.76,8.79-1.05,17.21,.32,19.31,2.46,.72,3.94,1.18,3.94,1.18,0,0,0,.01,.02,.04,.41,.84,9.18,19.02,15.5,42.38Z"></path><path fill="#ff9843" d="M410.86,387.52c-.19,1.02-.41,2.02-.66,3.04-7.11,28.08-12.87,140.34-12.87,140.34,3.77,14.03-65.32,16.91-103.42,10.42-13.85-2.35-23.61-5.94-24.28-10.68-6.82-18.15,9.87-52.03,19.5-69.26,1.21-2.16,2.25-4.44,3.11-6.79,2.18-5.93,3.23-12.38,3.01-18.88-.29-8.9-.93-17.54-1.72-25.64-1.48-15.27-3.45-28.6-4.48-38.03h0c2-2.36,3.96-4.54,5.77-6.62,2.77-3.2,5.2-6.16,6.91-9.04,1.87-3.13,2.92-6.19,2.69-9.4-.18-2.43-.55-4.88-1.06-7.31-.24-1.15-.51-2.29-.8-3.43-3.09-11.97-8.79-22.32-8.79-22.32,10.32-7.12,30.19-7.34,30.19-7.34,0,0,.14,1.29,.39,3.38,.97,8.42,3.69,29.99,6.47,33.68,3.48,4.6,58.42,17.94,60.34,10.56,1.88-7.25-9.47-37.78-9.89-38.94-.01-.02-.01-.04-.01-.04,17.6,4.94,25.24,10.52,25.59,10.85,0,0-.01,0-.02,0-9.55,9.88,9.07,34.56,4.05,61.47Z"></path><path fill="#ed985f" d="M379.71,271.63s-1.74,11.85-2.72,23.09c-17.93-2.72-25.79-23.21-28.77-34.4l31.49,11.31Z"></path><path fill="#ffb27d" d="M384.81,282.99s-42.6-4.2-39.98-35.49c2.62-31.29-1.11-52.9,26.2-51.54,27.31,1.36,31.59,13.91,32.86,24.61,1.28,10.69-7.94,62.7-19.09,62.42Z"></path><path fill="#2c3a64" d="M404.1,203.03c-5.78-10.19-10.92-8.71-13.94-6.21-21.97-17.84-38.84,2.7-38.84,2.7-4.75,22.11-19.55,33.35-19.55,33.35,0,0,7.27,6.57,25.6,3.26,5.6-1.01,10.86-5.02,15.48-10.08-8.45,13.46-19.17,22.61-19.17,22.61,22.34-9.13,33.88-43.17,35.05-46.78,2.36,3.06,6.97,9.65,8.04,15.69,1.44,8.22,1.01,24.73,5.1,24.65,0,0,10.89-23.91,2.23-39.19Z"></path><path fill="#ffb27d" d="M594.18,436.99c-4.26,4.79-8.57,16.78-21.69,16.55-9.36-.09-18.84,1.15-23.43,1.82-1.78,.37-2.82,.52-2.82,.52l-.47-17.55s.19,.02,.61-.06c3.17-.56,19.27-3.49,25.64-8.48,7.15-5.66,23.88-.41,23.88-.41,0,0,2.57,2.92-1.72,7.62Z"></path><path fill="#233862" d="M317.17,1022.93h-66.14s-1.59-11.9,1.87-20.93c3.31-8.66,8.49-12.6,7.25-23.09,4.2,5.11,11.05,10.83,20.61,9.31,1.17,2.24,7.56,14.25,11.48,17.56,4.32,3.67,23.6,2.36,24.93,17.14Z"></path><path fill="#233862" d="M459.19,1022.93h-66.14s-2.47-12.46,1.87-20.93c3.84-7.5,2.37-11.77-.48-17.98,3,1.45,6.87,2.77,11.14,2.48,3.3-.22,6.78-1.99,9.84-4.08,2.85,3.83,15.04,20.14,18.84,23.37,4.32,3.67,23.6,2.36,24.93,17.14Z"></path><path fill="#fff" d="M374.65,264.9s.6,4.14,9.23,4.15c0,0,7.25,0,7.27-4.49,0,0-6.83-3.71-16.49,.34Z"></path><path fill="#ed7d2b" d="M302.94,463.75c-2.62,19.57-14.6,58.83-9.03,77.58-13.85-2.35-23.61-5.94-24.28-10.68-6.82-18.15,9.87-52.03,19.5-69.26,1.21-2.16,2.25-4.44,3.11-6.79,2.18-5.93,3.23-12.38,3.01-18.88-.29-8.9-.93-17.54-1.72-25.64,0,0,12.2,32.88,9.41,53.68Z"></path><path fill="#ff9843" d="M396.56,331.74c.46,17.39,11.11,65.13,13.64,58.83,2.89-7.19,14.07-34.51,19.32-35.52-.28-1.26-21.77-29.33-22.72-29,0,0-5.84,2.1-10.25,5.68Z"></path><g><path fill="#ffb27d" d="M295.14,578.43l-10.97,8.63s-2.78-4.1-7.17-10.65c-1.31-1.97-2.02-3.16-2.02-3.16-3.48-5.29-7.52-11.78-11.94-18.82l-.07-.08c-7.41-12.29-15.55-26.27-21.78-38.9-4.33-8.96-7.7-17.25-9.35-23.77-.18-.65-.28-1.22-.39-1.97-3.22-16.54,2.69-49.37,12.09-81.4,1.29-4.43,2.66-8.79,3.96-13.05,5-15.71,10.62-30.47,16.27-42.41,3.31-7.17,6.61-13.43,9.79-18.1,1.1-1.67,2.14-3.25,3.26-4.59,.61-.81,1.21-1.59,1.81-2.34,6.59,.66,20.42,3.74,30.68,17.74-.17,.74-.36,1.47-.54,2.22-4.15,15.81-10.56,35.2-17.2,54.21-3.61,10.44-7.31,20.8-10.55,30.55-2.05,5.83-3.91,11.38-5.59,16.51-3.16,9.82-5.5,17.99-6.43,23.72-.63,3.71,.27,10.71,1.97,19.3,2.91,14.98,8.46,35.16,13.61,52.28,2.11,7.15,4.18,13.8,5.92,19.32,2.77,8.92,4.66,14.76,4.66,14.76Z"></path><path fill="#ff9843" d="M299.94,395.02c-10.96-19.53-42.37-27.94-42.37-27.94,17.73-66.41,64.26-60.25,64.26-60.25,0,0-16.93,69.09-21.89,88.19Z"></path><path fill="#ffb27d" d="M284.17,587.06s2.88,5.02,3.2,8.64c.32,3.61,3.06,15.6,6.6,19.4,3.54,3.8,11.6,11.41,12.73,10.27,1.13-1.14,4.39-10.11,1.37-16.45-1.37-2.86-3.22-10.84-5.66-12.78-2.97-2.35-7.27-17.71-7.27-17.71l-10.97,8.63Z"></path><path fill="#ffb27d" d="M295.19,580.38s8.73,5.23,9.91,9.42c1.18,4.18,6.06,12.62,5.56,13.6-.53,1.05-8.12-4.66-10.7-9.86-2.58-5.2-4.77-13.15-4.77-13.15Z"></path></g></g><g><path fill="#ed7d2b" d="M502.83,531.72l319.54-225.88c17.62-12.46,39.62-12.46,57.24,0l319.54,225.88v368.16l-696.33-41.22v-326.93Z"></path><rect fill="#fcecdb" height="588.21" width="576.45" y="368.6" x="562.77"></rect><g><ellipse fill="#efcbab" ry="7" rx="5.93" cy="394.26" cx="586.29"></ellipse><path fill="#efcbab" d="M1109.42,394.26c0-3.86,2.65-7,5.93-7s5.93,3.13,5.93,7-2.65,7-5.93,7-5.93-3.13-5.93-7Z"></path><rect fill="#efcbab" height="1.52" width="529.06" y="393.5" x="586.29"></rect><rect fill="#efcbab" height="624.68" width="1.29" y="391.48" x="585.65"></rect><rect fill="#efcbab" height="624.68" width="1.29" y="391.48" x="1114.91"></rect></g><g><polygon fill="#ff9843" points="1199.16 530.7 1199.16 1022.93 502.83 1022.93 502.83 530.7 851 776.82 1199.16 530.7"></polygon><path fill="#ed7d2b" d="M502.83,1022.93l318.94-269.99c17.47-14.79,40.98-14.79,58.45,0l318.94,269.99H502.83Z"></path></g><path fill="#efcbab" d="M957.29,450.09h-210.18c-3.05,0-5.55-2.95-5.55-6.55h0c0-3.6,2.5-6.55,5.55-6.55h210.18c3.05,0,5.55,2.95,5.55,6.55h0c0,3.6-2.5,6.55-5.55,6.55Z"></path><path fill="#efcbab" d="M1011.43,476.38h-318.45c-3.05,0-5.55-2.95-5.55-6.55h0c0-3.6,2.5-6.55,5.55-6.55h318.45c3.05,0,5.55,2.95,5.55,6.55h0c0,3.6-2.5,6.55-5.55,6.55Z"></path><g><path fill="#efcbab" d="M970.13,557.91h-230.41c-2.21,0-4.01-2.13-4.01-4.74h0c0-2.61,1.81-4.74,4.01-4.74h230.41c2.21,0,4.01,2.13,4.01,4.74h0c0,2.61-1.81,4.74-4.01,4.74Z"></path><g><path fill="#efcbab" d="M762.86,582.67h-64.97c-2.21,0-4.01-2.13-4.01-4.74h0c0-2.61,1.81-4.74,4.01-4.74h64.97c2.21,0,4.01,2.13,4.01,4.74h0c0,2.61-1.81,4.74-4.01,4.74Z"></path><path fill="#efcbab" d="M860.83,582.67h-78.49c-2.21,0-4.01-2.13-4.01-4.74h0c0-2.61,1.81-4.74,4.01-4.74h78.49c2.21,0,4.01,2.13,4.01,4.74h0c0,2.61-1.81,4.74-4.01,4.74Z"></path><path fill="#efcbab" d="M1011.96,582.67h-135.69c-2.21,0-4.02-2.13-4.02-4.74h0c0-2.61,1.81-4.74,4.02-4.74h135.69c2.21,0,4.02,2.13,4.02,4.74h0c0,2.61-1.81,4.74-4.02,4.74Z"></path></g><g><path fill="#efcbab" d="M861.35,611.46h-126.2c-2.21,0-4.01-2.13-4.01-4.74h0c0-2.61,1.81-4.74,4.01-4.74h126.2c2.21,0,4.01,2.13,4.01,4.74h0c0,2.61-1.81,4.74-4.01,4.74Z"></path><path fill="#efcbab" d="M974.7,611.46h-99.4c-2.21,0-4.01-2.13-4.01-4.74h0c0-2.61,1.81-4.74,4.01-4.74h99.4c2.21,0,4.01,2.13,4.01,4.74h0c0,2.61-1.81,4.74-4.01,4.74Z"></path></g></g><path fill="#f99746" d="M896.81,669.99c-7.59,7.44-15.72,13.64-24.27,19.3,.72-2.68,1.33-5.46,1.22-7.94-.15-3.41-2.46-4.91-4.77-6.32-.57-.35-1.11-.72-1.63-1.09,.89-1.04,1.35-2.47,.76-4.04-.97-2.58-3.71-2.17-4.63,.23-.17,.44-.27,.87-.31,1.29-.37-.23-.66-.48-.9-.83,1.41-3.1,2.73-6.26,3.95-9.49,.28-.73-.07-1.58-.57-2.02-2.03-1.8-4.79-1.22-6.42,1.05-1.93,2.69-1.45,6.79-.52,9.84,.06,.21,.14,.43,.21,.64-1.79,3.82-3.74,7.53-5.83,11.14-.19-.23-.39-.46-.59-.69-.54-.63-1.12-1.43-1.63-2.31,.96-2.94,1.57-6.03,1.8-9.25,.1-1.44-1.12-2.14-2.13-1.7-2.81,1.23-4.33,4.6-3.96,8.07,.13,1.19,.45,2.33,.91,3.38-.63,1.61-1.37,3.16-2.25,4.67-.57,.97-.16,1.96,.51,2.43-.92,3.62-2.16,7.33-4.28,9.94-1.73,2.13-4.96,3.75-7.06,1.22-1.33-1.6-1.5-4.28-1.68-6.39-.45-5.22-.78-10.64-.62-15.88,.08-2.48,.3-5.01,1.02-7.36,.45-1.46,1.07-3.67,1.67-1.16,.29,1.23-.11,3.15-.22,4.4-.19,2.24,2.76,2.5,2.95,.27,.22-2.63,1.22-8.15-1.3-9.8-2.09-1.37-4.01,.59-4.98,2.64-3.48,7.38-2.09,17.51-1.57,25.53,.42,6.39,2.44,14.24,9.36,12.21,6.51-1.91,8.9-11.6,10.4-18.27,.09-.42,.06-.79-.05-1.12,.03-.06,.05-.11,.08-.16,.27,.32,.54,.64,.81,.96,.38,.4,.75,.83,1.1,1.27-.68,1.12-1.38,2.23-2.09,3.33-.4,.62-.29,1.56,.12,2.13,2.19,3.11,6.13,.8,6.05-3.02-.02-.89-.2-1.67-.49-2.39,2.06-3.49,3.98-7.09,5.76-10.78,.93,1.07,2.1,1.76,3.55,1.68,.1,0,.2-.02,.3-.03,.76,.95,1.71,1.73,2.58,2.31,.84,.56,1.81,.9,2.56,1.63,1.4,1.36,.99,2.9,.68,4.83-.41,2.53-1.09,5.06-1.72,7.53-2.98,2.01-5.91,4.58-6.91,8.62-.91,3.69-.1,7.57,2.58,9.86,.81,.69,1.87,.13,2.22-.87,1.68-4.88,3.19-9.82,4.5-14.86,.04-.16,.08-.32,.13-.48,2.63-1.76,5.38-3.32,7.97-5.13,6.9-4.82,13.44-10.31,19.6-16.36,1.46-1.43-.49-4.06-1.95-2.62Zm-35.91-4.65c-.03-1.4,.6-3.95,1.96-3.92-.61,1.57-1.25,3.13-1.91,4.67-.02-.25-.04-.5-.05-.75Zm3.75,40.32c-1.24-2.75,.54-6.14,2.57-8.39-.8,2.82-1.65,5.62-2.57,8.39Z"></path></g><g opacity=".5"><polygon fill="#cde0fb" points="838.55 127.04 868.57 205.23 757.95 264.44 727.93 186.24 798.25 195.74 838.55 127.04"></polygon><path fill="#b1cff2" d="M727.93,186.24l110.63-59.21-33.07,65.82c-2.61,5.19-7.67,7.93-12.7,6.88l-64.85-13.5Z"></path></g><g opacity=".5"><polygon fill="#cde0fb" points="188.18 637.65 203.97 687.65 133.24 718.8 117.45 668.8 160.71 678.23 188.18 637.65"></polygon><path fill="#b1cff2" d="M117.45,668.8l70.73-31.14-22.88,39.15c-1.8,3.09-5.04,4.53-8.12,3.63l-39.73-11.64Z"></path></g><g opacity=".5"><polygon fill="#cde0fb" points="1399.49 340.06 1377.3 438.24 1238.41 394.47 1260.6 296.29 1318.95 367.27 1399.49 340.06"></polygon><path fill="#b1cff2" d="M1260.6,296.29l138.89,43.76-72.09,30.97c-5.69,2.44-12.06,.47-16-4.94l-50.8-69.79Z"></path></g><g><path fill="#afcdfb" d="M157.7,858.73h0c-3.36-.01-6.61-.07-9.68-.17-.36-.01-.64-.36-.63-.78,0-.42,.3-.75,.66-.74,3.06,.1,6.3,.15,9.65,.17,.36,0,.64,.34,.64,.76,0,.42-.29,.76-.64,.76Zm9.68-.09c-.35,0-.64-.33-.64-.75,0-.42,.28-.77,.63-.77,3.1-.06,6.35-.16,9.67-.29,.37-.03,.65,.32,.67,.73,.01,.42-.27,.77-.62,.79-3.33,.13-6.59,.23-9.69,.29h-.01Zm-29-.57s-.03,0-.04,0c-3.41-.24-6.66-.56-9.66-.93-.35-.04-.61-.42-.57-.84,.04-.42,.36-.72,.71-.68,2.98,.38,6.22,.69,9.6,.93,.36,.03,.63,.39,.6,.81-.02,.4-.3,.71-.64,.71Zm48.35-.17c-.34,0-.63-.32-.64-.73-.02-.42,.26-.78,.61-.79,3.1-.17,6.35-.37,9.66-.59,.35-.01,.66,.3,.68,.72,.02,.42-.25,.78-.61,.8-3.31,.23-6.57,.43-9.67,.6h-.03Zm19.33-1.31c-.34,0-.62-.31-.64-.71-.02-.42,.24-.78,.6-.81,3.17-.25,6.39-.53,9.65-.82,.35-.03,.66,.28,.69,.7,.03,.42-.24,.78-.59,.82-3.26,.29-6.48,.57-9.66,.82h-.04Zm-86.88-1.03s-.08,0-.11-.01c-3.56-.75-6.74-1.66-9.48-2.68-.34-.13-.53-.56-.42-.96,.11-.4,.47-.62,.81-.49,2.68,1,5.81,1.89,9.31,2.63,.35,.07,.58,.47,.52,.88-.06,.37-.33,.63-.63,.63Zm106.18-.7c-.33,0-.61-.3-.64-.7-.03-.42,.23-.79,.59-.82,3.18-.32,6.39-.65,9.64-1,.36-.04,.67,.27,.7,.69,.03,.42-.23,.79-.58,.83-3.25,.35-6.46,.68-9.64,1-.02,0-.04,0-.05,0Zm19.28-2.07c-.33,0-.61-.29-.64-.69-.03-.42,.22-.79,.58-.83,3.18-.37,6.39-.74,9.63-1.14,.35-.03,.67,.26,.71,.68,.04,.42-.22,.79-.58,.84-3.23,.39-6.45,.77-9.63,1.14-.02,0-.04,0-.06,0Zm19.25-2.33c-.32,0-.6-.29-.64-.68-.04-.42,.22-.79,.57-.84,3.19-.41,6.39-.82,9.61-1.25,.35-.04,.67,.25,.71,.67,.04,.42-.21,.79-.57,.84-3.22,.43-6.43,.85-9.62,1.25-.02,0-.05,0-.07,0Zm-162.81-2.38c-.13,0-.26-.05-.38-.15-1.87-1.61-3.21-3.42-4.01-5.4-.58-1.44-1.06-2.89-1.43-4.3-.11-.4,.08-.83,.42-.95,.34-.12,.7,.1,.81,.5,.35,1.34,.81,2.72,1.37,4.1,.7,1.74,1.91,3.36,3.6,4.82,.29,.25,.35,.72,.14,1.06-.13,.2-.32,.31-.52,.31Zm182.04-.18c-.32,0-.6-.29-.64-.67-.04-.42,.21-.79,.57-.84,3.19-.44,6.39-.89,9.61-1.35,.35-.05,.67,.25,.72,.66,.04,.42-.21,.8-.56,.85-3.21,.46-6.42,.91-9.61,1.35-.03,0-.05,0-.08,0Zm19.21-2.75c-.32,0-.6-.28-.64-.67-.04-.42,.21-.8,.56-.85,3.18-.47,6.37-.95,9.56-1.43,.35-.05,.68,.24,.72,.66s-.2,.8-.56,.85c-3.2,.49-6.39,.96-9.57,1.43-.03,0-.05,0-.08,0Zm19.15-2.91c-.32,0-.6-.28-.64-.66-.05-.42,.2-.8,.55-.85,3.2-.5,6.39-1,9.59-1.52,.36-.05,.68,.24,.72,.65,.05,.42-.2,.8-.55,.86-3.2,.51-6.4,1.02-9.6,1.51-.03,0-.06,0-.09,0Zm19.2-3.07c-.32,0-.59-.28-.64-.66-.05-.42,.2-.8,.55-.86,3.2-.52,6.39-1.05,9.58-1.58,.35-.06,.68,.23,.73,.65,.05,.42-.2,.8-.55,.86-3.19,.53-6.39,1.06-9.58,1.58-.03,0-.06,0-.09,0Zm19.16-3.2c-.31,0-.59-.27-.64-.65-.05-.42,.19-.8,.55-.86,3.2-.54,6.39-1.09,9.57-1.64,.35-.06,.68,.23,.73,.64,.05,.42-.19,.8-.54,.86-3.18,.55-6.38,1.1-9.58,1.64-.03,0-.06,0-.09,0Zm19.15-3.31c-.31,0-.59-.27-.64-.65-.05-.42,.19-.8,.54-.86,3.2-.56,6.39-1.13,9.57-1.7,.35-.06,.68,.22,.73,.64,.05,.42-.19,.8-.54,.87-3.18,.57-6.37,1.14-9.57,1.7-.03,0-.06,0-.1,0Zm19.13-3.42c-.31,0-.59-.27-.64-.65-.05-.42,.19-.8,.54-.87,3.2-.58,6.39-1.17,9.56-1.75,.35-.06,.68,.22,.74,.63,.05,.42-.19,.8-.54,.87-3.17,.58-6.36,1.17-9.56,1.75-.03,0-.07,0-.1,0Zm-302.89-1.73s-.09,0-.13-.01c-.35-.08-.57-.48-.5-.9,.62-3.63,2.07-7.13,4.32-10.39,.22-.33,.63-.38,.91-.11,.28,.26,.32,.74,.09,1.07-2.11,3.07-3.48,6.35-4.06,9.73-.06,.36-.33,.61-.63,.61Zm322.01-1.79c-.31,0-.59-.27-.64-.64-.06-.42,.18-.8,.54-.87,3.21-.6,6.4-1.2,9.56-1.8,.35-.07,.68,.22,.74,.63,.06,.41-.18,.81-.53,.87-3.16,.6-6.35,1.2-9.56,1.8-.03,0-.07,0-.1,0Zm19.11-3.61c-.31,0-.58-.27-.64-.64-.06-.41,.18-.81,.53-.87,3.22-.62,6.4-1.23,9.55-1.84,.35-.07,.68,.21,.74,.63,.06,.41-.18,.81-.53,.87-3.15,.61-6.34,1.22-9.55,1.84-.04,0-.07,0-.1,0Zm19.1-3.7c-.31,0-.58-.26-.63-.64-.06-.41,.18-.81,.53-.87,3.22-.63,6.41-1.26,9.55-1.88,.36-.07,.68,.21,.74,.63,.06,.41-.18,.81-.53,.88-3.14,.62-6.32,1.25-9.55,1.88-.04,0-.07,.01-.11,.01Zm19.09-3.78c-.31,0-.58-.26-.63-.63-.06-.41,.18-.81,.53-.88,3.24-.65,6.42-1.29,9.54-1.92,.35-.07,.68,.21,.74,.62,.06,.41-.18,.81-.53,.88-3.12,.63-6.31,1.27-9.54,1.92-.04,0-.07,.01-.11,.01Zm19.08-3.87c-.31,0-.58-.26-.63-.63-.06-.41,.17-.81,.52-.88,3.26-.67,6.44-1.32,9.54-1.96,.35-.07,.68,.2,.75,.62,.06,.41-.17,.81-.52,.88-3.1,.64-6.28,1.3-9.54,1.96-.04,0-.07,.01-.11,.01Zm-387.07-.92c-.2,0-.4-.11-.53-.33-.2-.34-.13-.82,.16-1.06,2.43-2.01,5.28-3.95,8.45-5.78,.32-.19,.71-.03,.86,.35,.16,.38,.02,.83-.3,1.02-3.11,1.79-5.9,3.7-8.28,5.66-.11,.09-.24,.14-.37,.14Zm406.15-3.03c-.31,0-.58-.26-.63-.63-.06-.41,.17-.81,.52-.88,3.29-.69,6.47-1.36,9.54-2,.35-.08,.68,.2,.75,.62,.06,.41-.17,.81-.52,.88-3.06,.65-6.25,1.31-9.54,2-.04,0-.08,.01-.11,.01Zm19.07-4.03c-.31,0-.58-.26-.63-.63-.06-.41,.17-.81,.52-.88,3.36-.72,6.55-1.4,9.54-2.05,.35-.08,.69,.2,.75,.61,.06,.41-.17,.81-.52,.88-2.99,.65-6.17,1.33-9.54,2.05-.04,0-.08,.01-.12,.01Zm-407.95-3.13c-.26,0-.51-.19-.6-.49-.12-.39,.05-.83,.38-.98,2.85-1.26,5.96-2.48,9.23-3.63,.34-.12,.7,.11,.8,.51,.1,.4-.09,.83-.43,.95-3.24,1.14-6.32,2.35-9.15,3.6-.07,.03-.15,.05-.23,.05Zm427.03-.99c-.3,0-.58-.26-.63-.62-.06-.41,.17-.81,.52-.89,3.64-.79,6.83-1.5,9.54-2.1,.35-.08,.69,.19,.75,.61,.07,.41-.16,.81-.51,.89-2.71,.6-5.91,1.31-9.55,2.1-.04,0-.08,.01-.12,.01Zm19.11-4.23c-.3,0-.57-.25-.63-.62-.07-.41,.16-.81,.51-.89,.65-.15,1.03-.23,1.1-.25,.38-.1,.79,.26,.79,.74,0,.63-.06,.64-1.65,1-.04,0-.08,.01-.12,.01Zm-427.59-1.38c-.29,0-.55-.23-.63-.58-.08-.41,.13-.82,.47-.92,3.01-.87,6.2-1.72,9.48-2.51,.35-.08,.69,.18,.76,.59,.07,.41-.15,.81-.5,.9-3.26,.79-6.44,1.63-9.43,2.5-.05,.02-.1,.02-.15,.02Zm18.98-4.62c-.31,0-.58-.26-.63-.63-.06-.41,.18-.81,.53-.88,3.09-.63,6.32-1.23,9.59-1.79,.36-.06,.68,.23,.73,.64,.05,.42-.19,.8-.55,.86-3.26,.56-6.48,1.16-9.56,1.78-.04,0-.07,.01-.11,.01Zm19.18-3.29c-.32,0-.6-.28-.64-.67-.04-.42,.21-.8,.56-.85,3.18-.45,6.42-.87,9.65-1.25,.35-.04,.67,.26,.7,.68,.03,.42-.22,.79-.58,.83-3.22,.38-6.45,.79-9.62,1.25-.03,0-.05,0-.08,0Zm19.3-2.25c-.33,0-.62-.3-.64-.7-.03-.42,.24-.79,.59-.82,5.99-.54,9.71-.73,9.75-.73,.36-.03,.66,.31,.67,.73,.01,.42-.26,.77-.62,.79-.04,0-3.74,.19-9.7,.73-.02,0-.03,0-.05,0Z"></path><g><polygon fill="#afcdfb" points="591.51 834.51 670.89 781.39 598.47 786.45 604.06 800.89 589.1 820.45 591.51 834.51"></polygon><polygon fill="#fff" points="670.89 781.39 587.7 799.39 527.12 849.08 670.89 781.39"></polygon><polygon fill="#fff" points="598.47 786.45 670.89 781.39 595.14 755.18 598.47 786.45"></polygon></g></g><g><polygon fill="#afcdfb" points="1020.89 136.6 1111.01 153.44 1051.7 104.13 1048.45 119.53 1026.43 123.83 1020.89 136.6"></polygon><polygon fill="#fff" points="1111.01 153.44 1036.44 106.33 962.84 100.63 1111.01 153.44"></polygon><polygon fill="#fff" points="1051.7 104.13 1111.01 153.44 1065.59 77.22 1051.7 104.13"></polygon></g><g id="d"><path fill="#233862" d="M1293.78,567.73s-18.38,1.51-31.94,40.58c-13.68,39.41,16.92,39.02,6.61,64.13-10.31,25.11,14.84,40.09,22.47,60.64,7.64,20.56,46.11,70.15,49.16,92.76,3.05,22.62,37.26-23.52,37.26-23.52,0,0,34.78-43.8,22.31-69.25-20.55-41.94-2.75-51.05-3.39-74.48-.64-23.42-38.3-115.72-102.48-90.87Z"></path><path fill="#ffad76" d="M1283.8,707.91s-71.14,36.61-84.65,35.91c-13.51-.7-96.78-29.95-96.78-29.95l2.12,16.91s64.26,43.64,86.73,46.12c22.12,2.44,97.75-23.44,105.05-28.9,7.3-5.46,8.75-34.56-12.47-40.09Z"></path><path fill="#ffb27d" d="M1278.06,748.05c6.54,5.36,14.74,9.77,25.03,12.58,38.58,10.52,53.36-27.98,58.92-54.4-5.26-3.55-10.21-4.34-13.07-4.74-2.79-.39-5.72-.65-8.15-.79-4.33-3.92-10.79-19.95-12.21-44.85l-1.81,.57-30.4,9.83s1.39,11.41,2.08,22.2c.53,8.44,1.46,13.34,.1,15.31-2.37,.61-4.64,4.17-4.64,4.17,0,0,0,.01-.02,.03-.41,.79-9.23,17.92-15.81,40.08Z"></path><path fill="#ed985f" d="M1296.35,666.25s1.4,11.4,2.07,22.2c17.23-2.04,25.22-21.4,28.33-32.02l-30.41,9.83Z"></path><path fill="#ffb27d" d="M1291.21,676.97s40.89-2.66,39.09-32.7c-1.8-30.04,2.27-50.61-23.91-50.18-26.18,.43-30.56,12.31-32.03,22.51-1.47,10.2,6.17,60.29,16.85,60.37Z"></path><path fill="#739af0" d="M1373.65,846.2c3.69-22.29,15.73-111.33,3.69-139.98-4.32-10.29-21.29-11.22-39.9-10.32-5.79,4.41-27.86,21.1-36.93,19.02-.1-.02-.27-.07-.51-.14-4.27-1.26-5.04-7.97-1.47-11.02,0,0-10.06,2.12-21.51,4.66-6.47,1.44-23.91,12.09-23.91,12.09,0,0,8.78,18.74,21.73,25.2-2.2,23.26,1.07,33.52,21.51,87.25,17.27,45.42-2.33,86.3-2.33,86.3,0,0,101.66,96.51,102.23,47.37,.42-37-27.32-91.96-22.6-120.44Z"></path><path fill="#233862" d="M1288.98,1024.22c-5.53-.74-10.51-4.31-13.6-9.77-.49-.87-1.02-1.8-1.57-2.8-11.57-20.68-16.08-84.03-42.1-151.52-6.34-16.43-29.1-19.38-35.3-37.96,0,0-15.27-60.2,29.23-61.97,44.51-1.78,119.2,167.5,120.38,185.25,1.14,17.2,29.43,90.29-57.04,78.77Z"></path><path fill="#172b4c" d="M1112.08,1022.83h63.35s2.37-11.93-1.79-20.05c-3.68-7.18-2.27-11.28,.46-17.22-2.87,1.39-6.58,2.65-10.67,2.37-3.16-.21-6.49-1.91-9.42-3.91-2.73,3.67-14.4,19.29-18.05,22.39-4.14,3.51-22.6,2.26-23.88,16.42Z"></path><path fill="#5486d6" d="M1366.97,729.56s8.24,88.57-45.23,107.13c-53.47,18.56-68.65-81.5-25.48-88.69,43.17-7.2,70.71-18.44,70.71-18.44Z"></path><path fill="#233862" d="M1194.96,777.6c-3.81,33.77-18.71,140.35-44.99,192.35-8.47,16.76,21.34,26.16,21.51,26.11,4-1.24,10.66-8.76,13.73-12.03,21.33-22.7,64.64-86.99,64.64-138.52,0-25.13,.37-73.12-15.1-85.32-9.53-7.51-38.27,4-39.79,17.42Z"></path><path fill="#2b478b" d="M1326.76,1022.84s-2.35-3.86-6.44-11.18c-4.87-8.71-10.26-25.86-16.8-47.84-6.87-23.07-15.02-51.46-25.21-81-3.14-9.12-6.48-18.34-10.03-27.56-6.34-16.43-23.78-14.16-29.99-32.73,0,0-24.21-64.39,20.3-66.16,44.51-1.78,129.09,172.24,133.95,189.09,5.32,18.45,31.28,95.06-65.77,77.38Z"></path><path fill="#233862" d="M1158.58,1022.83h63.35s2.37-11.93-1.79-20.05c-3.68-7.18-2.27-11.28,.46-17.22-2.87,1.39-6.58,2.65-10.67,2.37-3.16-.21-6.49-1.91-9.42-3.91-2.73,3.67-14.4,19.29-18.05,22.39-4.14,3.51-22.6,2.26-23.88,16.42Z"></path><path fill="#23407a" d="M1303.51,963.81c-6.87-23.07-15.02-51.46-25.21-81,2.66-22.38,8.4-41.95,18.05-49.85,0,0,23.41,85.64,7.16,130.84Z"></path><path fill="#2b478b" d="M1231.94,775.21c-3.81,33.77-9.19,142.74-35.46,194.74-8.47,16.76,21.34,26.16,21.51,26.11,4-1.24,10.66-8.76,13.73-12.03,21.33-22.7,64.64-86.99,64.64-138.52,0-25.13-24.98-71.11-40.45-83.3-9.53-7.51-22.45-.41-23.96,13.01Z"></path><path fill="#ebf3fa" d="M1153.5,686.65s-3.24-9.74-9.15-9.1c-5.91,.63-59.55,9.1-59.55,9.1,0,0,6.24,1.76,8.6,6.6l24.75,86.1h63.47l-28.12-92.7Z"></path><path fill="#ffbf94" d="M1362,706.22s-89.92,39.1-103.43,38.3c-8.73-.52-81.32-30.64-81.32-30.64l-6.52,14.55s70.65,53.61,90.07,53.35c38.34-.52,103.05-28.31,110.35-33.78,7.3-5.46,12.06-36.25-9.16-41.78Z"></path><path fill="#ffbf94" d="M1177.26,713.88s-6.52-11.84-13-12.19c-6.49-.35-17.7,5.22-21.53,6.09-3.83,.87-14.75,5.05-11.5,11.32,3.24,6.27,18.28,7.66,24.77,6.27,6.49-1.39,14.75,3.06,14.75,3.06l6.52-14.55Z"></path><path fill="#ffbf94" d="M1166.02,702.05s-10.32-5.59-13.27-6.63c-2.95-1.04-2.36,.02-1.47,3.32,.88,3.3,6.19,6.45,6.19,7.49s8.55-4.17,8.55-4.17Z"></path><path fill="#fff" d="M1283.55,659.69s3.87-1.8,14.74-.76c0,0-.58,5.01-8.6,5.51-4.54,.28-6.14-4.74-6.14-4.74Z"></path><path fill="#739af0" d="M1315.68,725.5s8.04,30.06,35.66,36.9c0,0,45.61-16.59,22.9-53.28,0,0-22.45-19.7-58.56,16.38Z"></path><path fill="#fff" d="M1084.8,686.65s-5.96,2.69-1.45,11.82l57.99-9.13s-2.01-10.59,2.54-11.74l-59.08,9.05Z"></path><path fill="#ffad76" d="M1105.58,709.12c1.38-6.51,1.29-8.08-1.83-12.06-2.06-2.63-5.21,3.89-6.84,7.82-.6-1.74-1.62-4.56-1.96-4.7-.5-.2,.69,8.75,.69,8.75h0c-.03,.37-.04,.74-.04,1.12h0s-2.52,13.15,8.45,20.26l-2.09-7.25c1.27-.25,2.22-7.33,3.62-13.94Z"></path><path fill="#233862" d="M1289.65,600.72s8.62-3.57,12.79,6.83c4.17,10.4,5.5,35.25,22.23,37.28,16.74,2.03,17.38-42.1,17.38-42.1l-41.88-19.53-22.12,16.49,11.59,1.03Z"></path><path fill="#233862" d="M1289.65,600.72s-9.44,.24-11.59,9.62c-2.15,9.38,1.21,26.88-4.02,28.15-5.23,1.27-9.97-29.17,.13-39.06,10.11-9.89,15.48,1.28,15.48,1.28Z"></path></g><path fill="#ffb27d" d="M548.89,437.8s9.45-4.22,10.52-7.14c1.07-2.92,4.19-4.18,7.95-6.21,3.76-2.03,6.01-5.71,6.55-5.2,.54,.51,.64,3.04-.86,4.95-1.5,1.9-7.87,15.22-10.27,16.74-2.4,1.52-13.89-3.13-13.89-3.13Z"></path><path fill="#82b378" d="M1529.09,1022.29h-60.72c-3.25-3.26,2.25-10.66,8-11.16,2.5-.22,5.66,.39,9.27,1.29,.84-13.1,5.61-72.01,23.59-69.65,20.22,2.65,0,25.94-5.72,39.73-4.23,10.21-8.7,24.86-10.74,31.77,1.64,.42,3.34,.83,5.08,1.21,2.68-9.72,12.65-42.4,25.33-40.5,14.89,2.23,8.9,15.33-1.65,23.11-7.74,5.72-17.25,13.85-21.77,17.78,3.83,.74,7.82,1.23,11.88,1.12,10.4-.29,15.48,3.33,17.45,5.27Z"></path><g><path fill="#82b378" d="M168.26,1023.75s-23.08-74.84-39.29-68.47c-16.21,6.38,39.29,68.47,39.29,68.47Z"></path><path fill="#82b378" d="M159.42,1023.75c-1.96,0-38.79-45.13-41.25-33.31-2.46,11.82,41.25,33.31,41.25,33.31Z"></path><path fill="#82b378" d="M198.7,1023.75s-15.23-16.49-34.52-12.2c-19.29,4.29-27.52,9-39.63,5.74-12.11-3.25-18.3,6.46-18.3,6.46h92.45Z"></path></g><rect fill="#2e3552" ry="1.96" rx="1.96" height="5.07" width="1620" y="1022.93" x="0"></rect><g><rect fill="#fcecdb" ry="21.66" rx="21.66" height="67.28" width="144.24" y="926.59" x="536.55"></rect><g><path fill="#efcbab" d="M644.26,943.32h-90.37c-1.01,0-1.83-.98-1.83-2.17h0c0-1.19,.83-2.17,1.83-2.17h90.37c1.01,0,1.83,.98,1.83,2.17h0c0,1.19-.83,2.17-1.83,2.17Z"></path><path fill="#efcbab" d="M569.91,952.66h-16.03c-1.01,0-1.83-.98-1.83-2.17h0c0-1.19,.83-2.17,1.83-2.17h16.03c1.01,0,1.83,.98,1.83,2.17h0c0,1.19-.83,2.17-1.83,2.17Z"></path><path fill="#efcbab" d="M620.4,952.66h-44.15c-1.01,0-1.83-.98-1.83-2.17h0c0-1.19,.83-2.17,1.83-2.17h44.15c1.01,0,1.84,.98,1.84,2.17h0c0,1.19-.83,2.17-1.84,2.17Z"></path></g><g><path fill="#efcbab" d="M644.26,969.96h-90.37c-1.01,0-1.83-.98-1.83-2.17h0c0-1.19,.83-2.17,1.83-2.17h90.37c1.01,0,1.83,.98,1.83,2.17h0c0,1.19-.83,2.17-1.83,2.17Z"></path><path fill="#efcbab" d="M586.68,979.31h-32.8c-1.01,0-1.83-.98-1.83-2.17h0c0-1.19,.83-2.17,1.83-2.17h32.8c1.01,0,1.84,.98,1.84,2.17h0c0,1.19-.83,2.17-1.84,2.17Z"></path><path fill="#efcbab" d="M626.59,979.31h-32.8c-1.01,0-1.84-.98-1.84-2.17h0c0-1.19,.83-2.17,1.84-2.17h32.8c1.01,0,1.83,.98,1.83,2.17h0c0,1.19-.83,2.17-1.83,2.17Z"></path></g></g></g></g></g></svg>