<svg viewBox="0 0 1620 1028" xmlns="http://www.w3.org/2000/svg"><g id="a"></g><g id="b"><g id="c"><g><path fill="#e8f2fa" d="M1550.1,1025.73c-102.19,0-1483.74-2.63-1483.74-2.78-.57-1.18-175.38-190.08,44.74-387.58,109.07-97.86-100.16-224.64,0-333.5,171.57-186.46,341.33-81.45,482.75-133.89,24.99-9.26,50.06-24.16,75.16-47.02,14.13-12.86,29.61-24.1,46.19-33.81,2.54-1.49,5.11-2.95,7.7-4.37,9.93-5.43,20.22-10.33,30.82-14.75,7.12-2.96,14.37-5.7,21.76-8.21h0c11.73-4,23.77-7.44,36.07-10.36,17.47-4.14,35.46-7.22,53.8-9.31,8-.92,16.07-1.63,24.19-2.18,158.02-10.47,335.85,48.44,427.62,134.54,18.48,17.34,102.49,107.05,36.27,230.37-41.82,77.86,133.36,152.21,195.61,241.12,158.26,226.04,2.47,378.77,1.03,381.71Z"></path><g opacity=".8"><path fill="#d3e4ff" d="M1192.55,500.19c-4.22,10.23-9.39,19.91-15.41,29-14.45,21.8-33.71,40.13-56.12,54.31-52.07,32.94-121.09,43.39-185.87,22.63-77.06-24.7-126.55-86.64-131.83-154.4-.7-8.93-.63-17.96,.25-27.02,1.46-15.21,5.21-30.51,11.41-45.53,5.01-12.16,11.38-23.54,18.89-34.05,.08-.12,.17-.24,.26-.36,20.85-29.04,50.47-51.46,84.54-65.5,9.66-3.99,19.68-7.3,29.98-9.9,4.9-1.24,9.88-2.31,14.89-3.22,35.15-6.38,72.67-4.52,108.87,7.08,4.8,1.54,9.49,3.22,14.07,5.05,6.47,2.56,12.71,5.4,18.72,8.49,25.3,13.01,46.47,30.46,62.7,50.78h.01c10.11,12.65,18.3,26.41,24.37,40.9,3.18,7.61,5.79,15.42,7.76,23.37,1.23,4.95,2.23,9.95,2.98,15.01,1.81,12.14,2.18,24.53,1.05,36.98-1.42,15.49-5.19,31.08-11.5,46.39Z"></path><g><path fill="#a9c2ff" d="M970.35,344.62c-11.87,8.1-8.72,29.79-29.27,17.57-20.55-12.23-33.45-18.87-39.26-8.2-5.83,10.67,12.38,16.51,7.59,28.13-4.79,11.62-14.54,12.85-24.82,3.31-10.29-9.55-10.58-18.73-27.23-18.43-16.65,.3-23.76-5.73-22.94-16.75,.14-1.94-.09-3.62-.55-5.11,.08-.12,.17-.24,.26-.36,20.85-29.04,50.47-51.46,84.54-65.5,9.66-3.99,19.68-7.3,29.98-9.9,4.9-1.24,9.88-2.31,14.89-3.22,5.81,2.08,12.03,6.3,15.33,14.76,7.25,18.62,19,14.24,9.02,29.84-9.99,15.6-5.88,19.43,5.02,22.29,10.9,2.86,23.46,6.89,21.75,14.49-1.72,7.6-32.42-11.02-44.29-2.92Z"></path><path fill="#a9c2ff" d="M1192.55,500.19c-4.22,10.23-9.39,19.91-15.41,29-14.45,21.8-33.71,40.13-56.12,54.31-5.59-.15-10.67-1.82-14.95-5.2-20.12-15.85,6.54-32.68,20.58-40.87,14.04-8.19-12.03-10.9-25.17-26.87-13.14-15.96,17.63-37.59-2.14-38.76-19.77-1.17-43.83-2.3-47.86-20.98-4.03-18.68,16.78-14.83,13.14-30.57-3.64-15.74,13.57-18.68,31.97-14.19,18.41,4.49,20.67-7.47,43.49-2.04,22.81,5.43,12.07,30.19,37.24,36.38,25.17,6.19,22.01,10.81,22.01,10.81,1.78,.52,3.36,1.4,4.72,2.59-1.42,15.49-5.19,31.08-11.5,46.39Z"></path><path fill="#a9c2ff" d="M1203.01,416.83c-23.96,2.21-22.34-24.16-42.69-22.6-20.51,1.58-11.73-11.28-21.89-24.56-10.17-13.28-44.4-6.08-37.44-19.52,6.96-13.43,26.08-2.92,35.04-12.58,8.96-9.66,27.91-.46,27.91-.46,1.3-.02,2.62,.13,3.95,.44,0,0,0,0,.01,0,10.11,12.65,18.3,26.4,24.37,40.9,3.18,7.61,5.79,15.42,7.76,23.37,1.23,4.95,2.23,9.95,2.98,15.01Z"></path><path fill="#a9c2ff" d="M1051.16,314.12s16.27-10.16,.97-19.59c-15.3-9.44-17.15-4.09-29.82-9.56-12.67-5.46-21.56,1.87-15.72,14.87,5.84,12.99,6.07,34.41,19.16,27.23,13.09-7.18,14.5-15.35,25.42-12.94Z"></path></g></g><path fill="#9bd399" d="M111.99,1023.46h70.06c3.75-2.81-2.6-9.18-9.24-9.61-2.88-.19-6.53,.34-10.69,1.12-.96-11.29-6.47-62.04-27.22-60-23.33,2.28,0,22.35,6.6,34.23,4.89,8.8,10.04,21.42,12.39,27.37-1.89,.36-3.85,.72-5.86,1.04-3.09-8.37-14.6-36.53-29.23-34.89-17.18,1.92-10.27,13.21,1.9,19.91,8.93,4.93,19.9,11.93,25.12,15.32-4.42,.64-9.03,1.06-13.7,.97-12-.25-17.86,2.87-20.13,4.54Z"></path><path fill="#9bd399" d="M1226.97,1023.46h-65.07c-3.49-2.61,2.41-8.53,8.58-8.93,2.68-.18,6.06,.32,9.93,1.04,.89-10.49,6.01-57.63,25.28-55.73,21.67,2.12,0,20.76-6.13,31.8-4.54,8.17-9.33,19.9-11.51,25.43,1.76,.34,3.58,.67,5.44,.97,2.87-7.78,13.56-33.93,27.15-32.41,15.96,1.78,9.54,12.27-1.77,18.5-8.3,4.58-18.49,11.08-23.33,14.23,4.1,.59,8.38,.99,12.73,.9,11.15-.23,16.59,2.66,18.7,4.22Z"></path><g><path fill="#ffae73" d="M1273.44,647.38s1.55-13.58-6.51-13.12c-8.06,.46-10.19,3.72-9.29,6.33,.9,2.61,8.73,11.24,8.73,11.24l7.06-4.46Z"></path><path fill="#6b98f6" d="M1398.96,674.59s-8.92,9.24-28.1,19.9c-1.82,1.01-3.72,2.03-5.72,3.06-7.45,3.83-16.18,7.74-26.27,11.4-1.11,.4-2.42,.85-3.88,1.31-11.49,3.66-32.64,8.85-45.74,9.31-1.14,.04-2.22,.04-3.23,0-19.94-.71-22.38-68.96-22.38-68.96,0,0,2.22-6.83,12.47-5.11,0,0,15.56,38.54,21.14,41.69,4.95,2.79,33.42-35.26,57.93-37.92,16.5-1.79,43.78,25.32,43.78,25.32Z"></path><path fill="#173157" d="M1345.38,1007.41s1.47,15.02-2.13,16.59l-46.1-.08s0-4.69,7.4-5.73c7.4-1.04,20.41-4.86,22.61-13.38,2.2-8.51,18.21,2.61,18.21,2.61Z"></path><path fill="#214d9a" d="M1311.54,825.58c.23,9.82,.76,19.96,1.81,29.06,4.98,43.21,6.73,95.43,7.44,105.49,1.24,17.47,5.16,45.39,5.16,45.39,0,0,7.77,6.5,22.9,3.4,0,0,12.54-40.21,15.34-82.55,.04-.69,.09-1.39,.13-2.09,.32-5.6,.66-12,1.01-18.9,2.31-46.23,4.81-114.9,4.81-114.9l-57.85-11.98s-1.33,22.57-.76,47.06Z"></path><path fill="#1e3865" d="M1311.54,825.58c14.66,22.3,42.6,63.39,53.8,79.81,2.31-46.23,4.81-114.9,4.81-114.9l-57.85-11.98s-1.33,22.57-.76,47.06Z"></path><path fill="#5d83e1" d="M1335,710.26c-11.49,3.66-32.64,8.85-45.74,9.31,2-.33,16.6-2.88,21.99-8.62,5.8-6.17,15.55-22.94,23.31-16.1,3.66,3.22,2.58,9.59,.43,15.41Z"></path><path fill="#ffae73" d="M1432.2,818.31s3.59,12.41,3,15.17c-.59,2.76-4.09,12.1-6.28,14.42-2.19,2.32-2.27-10.08-3.73-12.02-1.45-1.95-.67,4.63-1.83,5.17-1.16,.54-3.11-4.98-3.97-6.94-.87-1.96,3.11-8.77,3.47-13.65,.37-4.88,9.34-2.15,9.34-2.15Z"></path><path fill="#173157" d="M1460.22,990.34s8.2,6.6,6.6,11.29c-1.6,4.69-9,7.82-10.01,13.55-1,5.73-5,8.86-8.6,8.86h-17.17s-2.65-4.03,3.75-5.25c6.4-1.22,8.82-7.95,8.42-14.21-.4-6.25,.6-14.59,.6-14.59l13.61-2.78,2.8,3.13Z"></path><path fill="#214d9a" d="M1321.42,791.54s54.15,102.15,82.97,146.97c28.82,44.82,37.82,57.33,37.82,57.33,0,0,16.51-5.73,18.01-9.64,0,0-11.02-86.53-30.32-107.62-10.9-11.92-23.71-47.69-24.31-60.2-.6-12.51-13.25-42.36-13.25-42.36l-70.92,15.52Z"></path><path fill="#6b98f6" d="M1311.33,786.22s17.63,16.73,47.6,21.78c13.15,2.22,39.84,4.36,46.46-3.89,1.55-1.94,1.57-4.81,1.22-9.29-.89-11.64-4.21-34.15,10.78-79.39,1.4-4.21,2.34-8.24,2.88-12.09,3.27-23.14,2.92-40.61-19.86-49.95-34.12-13.99-48.13-2.48-48.13-2.48,0,0-18.15,7.48-26.44,29.27-16.58,43.59-14.52,106.04-14.52,106.04Z"></path><path fill="#ffae73" d="M1379.93,649.55c-5.75,3.6-15.85,5.72-25.49,1.47-.74-.33-.65-4.82-.46-9.23,.18-4.33,.65-8.58,.65-8.58l12.14-7.03,11.59-6.7c-1.39,23.05,4.17,28.44,1.58,30.07Z"></path><path fill="#f99352" d="M1376.32,628.99s-7.88,10.43-22.34,12.8c.18-4.33,.71-9.1,.71-9.1l12.08-6.51,9.55,2.81Z"></path><path fill="#ffae73" d="M1343.76,630.5s29.38,9.67,35.91-6.29c6.54-15.96,14.73-25.46-3.75-32.3-18.48-6.85-24.64-1.91-28.31,2.95-3.67,4.86-11.32,32.72-3.85,35.64Z"></path><path fill="#2a3967" d="M1397.97,593.7c.34-.23,1.02-.34,2.45-.17,0,0-.99-.82-2.5-1.12,.09-1.79-.27-5.04-3.48-6.37,0,0,1.63,1.17,1.45,3.06-3.13-4.23-10.95-8.28-34.58-10.71-31.14-3.21-24.91,15.86-21.41,18.62,3.51,2.75,14.77-1.16,22.05,.64,7.28,1.8,6.58,11.47,8.79,13.2,2.22,1.73,1.74-.73,5.44-1.49s2.91,4.25,1.21,7.31c-1.7,3.05,2.01,8.12,2.01,8.12l5.72-3.65c5.72-3.65,14.41-21.84,13.17-26.25-.11-.39-.22-.78-.33-1.18Z"></path><path fill="#5d83e1" d="M1406.61,794.83c-.89-11.64-4.21-34.15,10.78-79.39,1.4-4.21,2.34-8.24,2.88-12.09h0c-11.14-3.24-31.45,3.97-31.45,3.97,0,0-4.77,59.8,17.78,87.52Z"></path><path fill="#6b98f6" d="M1406.57,656.42s13.71,4.4,22.46,36.4c5.78,21.15,16.42,52.23,17.62,62,1.2,9.77-12.16,66.96-12.16,66.96,0,0-1.88,1.21-6.5,.4-4.42-.78-6.48-3.41-6.48-3.41,0,0-3.19-38.12-2.37-56.11,.34-7.48-39.26-54.76-60.63-60.85-8.39-2.39,48.07-45.38,48.07-45.38Z"></path><path fill="#a9c2ff" d="M1214.78,614.99s39.63-.99,85.37,6.43l4.78-10.62,5.24-11.63s-45.91-17.43-73.51-41.69l-21.87,57.51Z"></path><path fill="#ff912b" d="M1237.27,556.91l-22.75,59.22h0c-3.33-.87-5.15-4.02-3.99-6.9l20.03-49.76c.97-2.41,4.06-3.59,6.71-2.56h0Z"></path><path fill="#ff912b" d="M1258.99,659.06h0c4.42,.78,8.77-1.77,9.65-5.67l7.83-34.56c.88-3.9-2.01-7.73-6.44-8.51h0c-4.42-.78-8.77,1.77-9.65,5.67l-7.83,34.56c-.88,3.9,2.01,7.73,6.44,8.51Z"></path><path fill="#6b98f6" d="M1214.78,614.99s39.63-.99,85.37,6.43l4.78-10.62c-42.97-7.74-90.14,4.19-90.14,4.19Z"></path><path fill="#ff912b" d="M1287.5,619.28l12.38,1.92c-.19,0,11.5,2.01,15.34-7.13,.35-.62,.58-1.24,.73-1.97,2.98-11.39-4.11-13.49-4.11-13.49l-15.94-5.48-5.06,15.8v.06l-3.34,10.29Z"></path><path fill="#fc7600" d="M1287.5,619.28l12.38,1.92c-.19,0,11.5,2.01,15.34-7.13-7.01-4.49-24.38-5.13-24.38-5.13v.06l-3.34,10.29Z"></path><path fill="#ffae73" d="M1260.05,625.59s6.06,2.13,4.95,4.48c-1.11,2.35-8.81,5.59-10.03,3.73-1.21-1.86,1.27-10.19,5.08-8.21Z"></path><path fill="#ffae73" d="M1273.56,645.24s1.14-5.46,1.21-7.97c.07-2.51,.41-4.56-.26-4.63-.67-.07-1.16,.39-1.43,1.2-.27,.81-1.32,5.81-1.32,5.81l.53,4.83,1.27,.76Z"></path></g><g><path fill="#6e97f0" d="M674.37,641.67l-34.32,359.8s-3.6,21.81,14.81,21.85c30.25,.06,150.59,0,150.59,0,0,0-22.77-4.54-22.49-14.76,.33-12.04,40.12-370.3,40.12-370.3l-148.69,3.41Z"></path><path fill="#89aef9" d="M816.77,1016.94c-5.95,.02-122.45,.19-151.91-.14-12.84-.14-15.09-10.07-15.2-16.49-.05-3.08,.39-5.36,.39-5.36l.89-9.35,2.28-23.84,2.01-21.06,2.58-27.06,2.17-22.84,24.39-255.66,148.69-3.4s-16.76,149.93-28.61,259.07c-1.32,12.16-2.58,23.82-3.75,34.7-.38,3.48-.74,6.87-1.09,10.18-1.1,10.33-2.1,19.81-2.98,28.18-.46,4.41-.89,8.51-1.27,12.27-1.51,14.72-2.4,24.12-2.41,25.9,0,1.04,.09,2.01,.29,2.91,2.44,11.47,21.3,11.99,23.53,11.99Z"></path><polygon fill="#a9c2ff" points="313.27 445.88 396.87 741.95 408.31 782.5 447.25 920.4 1170.65 920.4 1027.13 445.88 313.27 445.88"></polygon><polygon fill="#89aef9" points="313.26 445.88 301.68 449.29 431.85 930.7 447.25 920.41 313.26 445.88"></polygon><polygon fill="#6e97f0" points="431.85 930.7 1150.79 930.7 1170.65 920.41 447.25 920.41 431.85 930.7"></polygon><rect fill="#a9c2ff" transform="translate(1524.3 2040.4) rotate(180)" height="6.52" width="155.66" y="1016.94" x="684.32"></rect><polygon fill="#4d86e3" points="800.41 930.7 799.61 935.69 653.22 961.76 655.22 940.7 656.18 930.7 800.41 930.7"></polygon><path opacity=".4" fill="#4d86e3" d="M816.77,1016.94c-5.95,.02-122.45,.19-151.91-.14-12.84-.14-15.09-10.07-15.2-16.49l145.7-24.17c-1.51,14.72-2.4,24.12-2.41,25.9,0,1.04,.09,2.01,.29,2.91,2.44,11.47,21.3,11.99,23.53,11.99Z"></path><polygon fill="#a9c2ff" points="313.26 445.88 1027.13 445.88 1142.96 827.25 420.95 827.25 313.26 445.88"></polygon><polygon fill="#6b98f6" points="1109.29 810.72 440.89 810.72 417.01 726.83 407.77 694.37 404 681.13 379.45 594.92 378.18 590.44 365.2 544.87 359.4 524.48 354.44 507.08 342.83 466.31 1001.59 466.31 1014.34 507.08 1019.78 524.48 1026.16 544.87 1068.16 679.19 1068.16 679.2 1071.72 690.58 1073.37 695.86 1102.37 788.6 1109.29 810.72"></polygon><polygon fill="#5d7afb" points="1014.35 507.09 354.44 507.09 342.84 466.31 1001.6 466.31 1014.35 507.09"></polygon><g><path fill="#e6f2ff" d="M370.09,484.74c-.8-2.82,1.15-5.1,4.34-5.1s6.43,2.28,7.22,5.1c.8,2.82-1.15,5.1-4.34,5.1s-6.43-2.28-7.22-5.1Z"></path><path fill="#e6f2ff" d="M389.3,484.74c-.8-2.82,1.15-5.1,4.34-5.1s6.43,2.28,7.22,5.1c.8,2.82-1.15,5.1-4.34,5.1s-6.43-2.28-7.22-5.1Z"></path><path fill="#e6f2ff" d="M409.98,484.74c-.8-2.82,1.15-5.1,4.34-5.1s6.43,2.28,7.22,5.1c.8,2.82-1.15,5.1-4.34,5.1s-6.43-2.28-7.22-5.1Z"></path></g></g><path fill="#ff7536" d="M870.55,229.26c27.02-27.97,68.67-84.14,96.72-112.91,5.77-5.92,.97-15.06-7.88-15.06h-51.04L956.5,5.32c2.06-4.1-4.28-7.36-7.32-3.77l-116.4,137.36c-3.39,4.01,.32,9.65,5.95,9.04l57.78-6.27-34.38,83.25c-1.89,4.58,4.84,8.06,8.43,4.34Z"></path><path fill="#a9c2ff" d="M630.27,399.59c6.08-27.48,9.91-78.53,16.34-106.89,1.32-5.84-5.74-10.32-11.62-7.4l-33.9,16.83-8.74-79.62c-.37-3.4-5.96-3.48-6.46-.09l-19.04,129.62c-.55,3.78,4.3,6.3,7.78,4.04l35.71-23.22,12.49,66.63c.69,3.67,6.63,3.75,7.44,.11Z"></path><g><path fill="#e3eeff" d="M1138.48,818.84l-580.78,43.14c-44.1,3.28-76.01-36.36-57.96-71.99l246.06-485.51c18.67-36.83,76.05-41.1,101.44-7.54l334.73,442.37c24.56,32.46,.62,76.24-43.48,79.52Z"></path><path fill="#ff7536" d="M1140.34,838.21l-580.78,43.14c-28.56,2.12-55.52-8.91-72.12-29.52-16.59-20.61-19.52-46.69-7.82-69.76l246.06-485.51c12.09-23.86,36.94-39.41,66.47-41.6,29.53-2.19,56.98,9.47,73.43,31.21l334.73,442.37c15.91,21.02,17.97,47.16,5.53,69.93-12.45,22.77-36.93,37.62-65.5,39.75ZM795.85,293.69c-13.29,.99-24.48,7.99-29.92,18.73l-246.06,485.51c-5.26,10.38-3.95,22.12,3.52,31.4,7.47,9.28,19.6,14.24,32.46,13.29l580.78-43.14c12.86-.96,23.88-7.64,29.48-17.89,5.6-10.25,4.67-22.01-2.49-31.48l-334.73-442.37c-7.4-9.78-19.76-15.04-33.05-14.05Z"></path><path fill="#ff7536" d="M782.24,744.56c-.63-6.6,.12-12.8,2.26-18.6,2.13-5.79,5.45-10.93,9.94-15.39,4.49-4.46,10.05-8.1,16.69-10.91,6.63-2.81,14.25-4.53,22.85-5.17,8.59-.64,16.49-.06,23.68,1.72,7.19,1.78,13.42,4.54,18.7,8.28,5.27,3.74,9.51,8.31,12.72,13.71,3.2,5.4,5.13,11.4,5.76,18,.63,6.6-.13,12.75-2.27,18.45-2.15,5.7-5.46,10.78-9.95,15.24-4.49,4.46-10.11,8.1-16.86,10.92-6.75,2.81-14.43,4.55-23.02,5.18-8.6,.64-16.44,.06-23.51-1.73-7.08-1.79-13.25-4.55-18.52-8.29-5.27-3.73-9.51-8.25-12.7-13.56-3.2-5.3-5.11-11.25-5.74-17.85Zm89.79-92.63l-83.66,6.21-35.93-251.14,107.36-7.97,12.23,252.9Z"></path></g><g><path fill="#ffae73" d="M421.6,667.32s1.82-3.61,3-5.32c1.18-1.71,6.22-6.72,7.08-5.59,.86,1.13,4.29,8.77,2.47,10.91-1.82,2.14,.12,5.86-8.95,8.11l-3.6-8.11Z"></path><path fill="#fc7600" d="M320.87,644.52s46.4,34.15,64.49,30.99c14.15-2.47,36.51-8.73,36.51-8.73,0,0,5.9,4.95,4.23,10.88,0,0-28.49,23.64-48.8,23.79-31.73,.24-46.7-13.86-46.7-13.86l-9.74-43.07Z"></path><path fill="#003c6b" d="M239.49,1004.71s1.35,19.16,5.55,19.43c.56,.04,21.32,.04,21.32,.04l26.5-.14s-.17-5.63-7.92-6.82c-7.75-1.19-20.71-5.99-25.41-15.02-4.94-9.5-20.05,2.51-20.05,2.51Z"></path><path fill="#214d9a" d="M237.96,1006.04s8.06,2.38,14.35,2.38c7.02,0,13.39-1.68,13.39-1.68,0,0,1.52-12.93,9.86-41.43,4.38-14.94,10.63-34.14,19.52-58,24.58-65.95,32.06-104.53,32.74-108.19,.04-.19,.05-.29,.05-.29l-.08-.03-75.58-29.26s9.34,90.9-2.58,125.79c-1.67,4.88-3.1,10.56-4.33,16.72-7.53,37.9-7.35,94.01-7.35,94.01Z"></path><path fill="#1e3865" d="M275.57,965.31c4.38-14.94,10.63-34.14,19.52-58,24.58-65.95,32.06-104.53,32.74-108.19,0-.11-.01-.21-.03-.32l-75.58-29.26s9.34,90.9-2.58,125.79c-1.67,4.88,25.93,69.98,25.93,69.98Z"></path><path fill="#004480" d="M298.52,1004.71s1.35,19.16,5.55,19.43c.56,.04,21.32,.04,21.32,.04l26.5-.14s-.17-5.63-7.92-6.82c-7.75-1.19-20.71-5.99-25.41-15.02-4.94-9.5-20.05,2.51-20.05,2.51Z"></path><path fill="#214d9a" d="M341.38,771.68s.98,58.9-10.58,131.22c-11.56,72.32-7.64,103.02-7.64,103.02,0,0-7.94,2.27-11.15,2.5-8.17,.59-16.54-1.69-16.54-1.69,0,0-16.54-72.35-11.8-108.55s-22.66-124.21-22.66-124.21l80.36-2.3Z"></path><path fill="#ffae73" d="M287.78,633.84l14.75,8.53,13.44-3.35c2.46-3.09,3.11-9.05,3.14-14.2,.04-5.12-.53-9.46-.53-9.46l-19.9-7.75-7.43-2.89c.02,.1,.58,5.38,.66,6.15,1.39,13.68-4.13,22.97-4.13,22.97Z"></path><path fill="#ff912b" d="M341.72,788.05c-18.36,15.63-87.86,13-92.14-4.22-4.28-17.22,4.67-146.61,36.04-154.74,6.51-1.69,41.31,8.23,41.31,8.23,0,0,5.46,12.59,9.04,28.63,.69,3.12,2.72,36.19,4.24,67.12,.71,14.47,1.31,28.47,1.61,38.73,.28,9.6,.29,15.91-.1,16.26Z"></path><path fill="#ffa05e" d="M293.41,611.11c4.04,6.02,18.21,11.29,25.71,13.7,.04-5.12-.53-9.46-.53-9.46l-19.9-7.75c-4.4-.05-7.08,.82-5.28,3.5Z"></path><path fill="#ffae73" d="M326.1,614.28s-32.07,8.82-37.99-8.87c-5.92-17.69-14.05-28.47,6.18-34.85,20.23-6.38,26.48-.67,30.09,4.81,3.61,5.48,9.92,36.16,1.73,38.91Z"></path><path fill="#0b3563" d="M323.11,573.67s-2.05,20.59-6.87,19.7c-4.83-.89-10.15-2.81-9.44,3.4,.71,6.21-4.7,16.85-11.66,16.82-14.94-.05-31.16-33.85-27.08-40.25,11.8-18.49,72.1-22.22,55.05,.33Z"></path><path fill="#fc7600" d="M318.39,629.54c-.41-.15-23.88-9.43-26.62-8.63-2.74,.8-6.16,8.19-6.16,8.19l41.31,8.23s-3.25-5.83-8.53-7.79Z"></path><g><path fill="#0b4d87" d="M464.46,729.74l-131.52,109.17c-2.58,2.14-5.83,2.82-7.22,1.52l-4.44-4.16c-1.4-1.31-.43-4.13,2.15-6.27l131.52-109.17c2.58-2.14,5.83-2.82,7.22-1.52l4.44,4.16c1.4,1.31,.43,4.13-2.15,6.27Z"></path><path fill="#6b98f6" d="M390.65,791.01l-57.71,47.91c-2.58,2.14-5.83,2.82-7.22,1.52l-4.44-4.16c-1.4-1.31-.43-4.13,2.15-6.27l57.71-47.91,9.51,8.91Z"></path><path fill="#0b4d87" d="M434.23,688.52c5.05,14.67,14.4,28.41,27.98,39.67,41.46,34.39,106.71,32.63,145.71-3.92,38.49-36.08,37.06-92.56-2.83-127.09-.53-.46-1.07-.92-1.62-1.38-41.46-34.39-106.69-32.65-145.7,3.91-26.24,24.59-33.94,58.66-23.54,88.8Zm29.46-83.88c22.7-21.28,55.05-29.75,85.42-25.12,17.7,2.7,34.72,9.85,48.78,21.51,38.19,31.68,40.02,84.65,4.09,118.32-13.23,12.4-29.72,20.44-47.19,24.09-30.01,6.26-62.88-.46-87.01-20.48-38.19-31.68-40.03-84.65-4.09-118.33Z"></path><g opacity=".5"><path fill="#accefc" d="M601.99,719.36c-13.23,12.4-29.73,20.44-47.2,24.09-30,6.26-62.88-.46-87.01-20.48-38.19-31.68-40.02-84.65-4.09-118.33,22.7-21.27,55.05-29.75,85.42-25.12,17.7,2.7,34.73,9.85,48.78,21.51,38.19,31.68,40.02,84.65,4.09,118.32Z"></path></g></g><path fill="#fc7600" d="M341.82,771.8c-72.47-45.53-66.44-106.28-66.44-106.28,26.49,13.17,52.77,42.29,64.83,67.55,.71,14.47,1.31,28.47,1.61,38.73Z"></path><g><path fill="#ffae73" d="M413.34,751.06c5.11-1.04,8.54-4.45,9.26-5.04,0,0,2.18,.13-.36,4.23-.21,.34-.68,1.22-1.04,1.85-.15,.26,.06,.55,.38,.57,2.95,.2,5.91-.83,11.59,.21,.78,.14,1.01,1.8,.98,2.5-.05,1.19,.05,2.53-1.53,4.36-.91,1.06-3.47,2.21-9.16,4.23-2.17,.77-8.36,.19-14.17-1.57l-4.64-1.89,1.44-7.6,1.17,.22c1.85,.34,4.14-1.65,6.07-2.07Z"></path><path fill="#ff912b" d="M297.87,637.32s-65.11,10.93,19.16,94.06c13.48,13.3,86.29,30.61,86.29,30.61,0,0,7.39-5.54,3.66-10.03,0,0-50.14-32.1-61.17-37.2-4.96-2.3-19.26-51.23-27.35-63.02-8.09-11.79-20.6-14.43-20.6-14.43Z"></path></g><path fill="#ffae73" d="M423.36,668.33s2.13-3.59,2.55-5.48c.42-1.89,3.1-7.41,4.2-8.39,.44-.39,1.9,.11,2.07,1.79,.07,.73-.33,2.05-1.05,3.63-1.16,2.57-.97,6.05-1.38,7.21-1.01,2.89-6.4,1.23-6.4,1.23Z"></path></g><g><g><path fill="#ffae73" d="M449.27,525.9c-1.11,1.12-1.25,2.37-.7,3.7,0,0,0,.01,.01,.02,1.01,2.47,4.36,5.23,8.25,7.98,.5,.35,.94,.68,1.32,.97,.1,.08,.2,.16,.3,.24,.08,.06,.15,.12,.23,.18,3.62,2.95,2.26,3.62,8.77,9.61,7.43,6.82,12.54,6.94,13.99,6.32,1.23-.53-1.27-4.14-4.04-8.21-.13-.2-.27-.39-.4-.59-.37-.54-.74-1.09-1.1-1.63-3.25-4.89-2.41-7.18-1.64-14.46,.63-5.91,10.44-33.03,10.44-33.03l-14.23-2.17s-4.3,21.59-9.02,24.92c-2.53,1.77-5.35,1.79-7.78,3.11-.17,.09-.34,.19-.51,.28-1.38,.81-2.79,1.64-3.9,2.76Z"></path><path fill="#1e3865" d="M449.27,525.9c-1.11,1.12-1.25,2.37-.7,3.7,0,0,0,.01,.01,.02,1.24,2.47,4.5,5.21,8.26,7.96,.49,.36,.92,.69,1.31,1,.1,.08,.2,.16,.3,.24,.08,.06,.15,.12,.23,.18,3.62,2.95,2.26,3.62,8.77,9.61,7.43,6.82,12.54,6.94,13.99,6.32,1.23-.53-1.27-4.14-4.04-8.21-1.45-.47-8.16-2.87-13.24-8.61-4.31-4.85-7.23-11.03-10.16-14.83-.32-.05-.51-.08-.84-.14-1.38,.81-2.79,1.64-3.9,2.76Z"></path><path fill="#ffae73" d="M564.06,518.09c.88,3.87,7.14,3.23,14.14,1.72,7-1.51,5.33,.29,15.29-.68,9.96-.97,12.98-4.24,13.28-5.55,.27-1.16-4.65-1.57-9.93-2.11-.66-.07-1.33-.14-2-.21-5.96-.66-10.32-4.05-15.73-6.84-5.13-2.64-12.77-13.39-12.77-13.39l-13.66,.95s7.16,9.6,9.93,13.77c1.63,2.45,1.54,5.7,1.34,8.21-.11,1.36-.21,2.75,.1,4.12Z"></path><path fill="#1e3865" d="M578.2,519.82c7-1.51,5.33,.29,15.29-.68,9.96-.97,12.98-4.24,13.28-5.55,.27-1.16-4.65-1.57-9.93-2.11l-.05,.09s-5.97,3.73-14.26,3.9c-6.76,.14-13.91-1.57-18.58-1.5-.11,1.36-.21,2.75,.1,4.12,.88,3.87,7.14,3.23,14.14,1.72Z"></path><path fill="#1e3865" d="M511.75,441.08l-12.78,30.29-16.68,39.54s-4.52,.38-8.86-.72c-3.99-1.02-8.56-3.68-8.56-3.68,0,0,4.64-42.46,13.29-66.84,2.21-6.26,4.7-11.32,7.43-14.17,13.39-13.94,26.16,15.57,26.16,15.57Z"></path><path fill="#214d9a" d="M498.79,392.97c-7.27-2.07-26.23-.04-46.8,3.24-5.68,.9-11.41-1.38-14.4-5.74h0l-51.76-3.58s-17.09,33.39-7.75,54.67c1.37,3.13,4.39,5.08,9.04,5.15h0s31.28,.05,41.28,.05c25.74,0,54.49-15.58,58.2-16.24,6.08-1.07,8.51,9.66,14.6,20.93,6.08,11.27,57.18,49.91,57.18,49.91,0,0,7.86,.07,11.1-1,3.49-1.15,4.77-2.65,4.77-2.65,0,0-56.6-99.36-75.46-104.73Z"></path><path fill="#1e3865" d="M432.14,256.46c-3.84-2.02-7.59-2.33-9.89-2.27-1.6,.04-3.19-.05-4.77-.26-19.75-2.56-31.66,22.74-32.36,30.38-1.29,14.03-9.71,16.17-21.56,24.96-23.77,17.62-16.81,38.1-3.82,45.71,7.8,4.57,21.54,0,21.54,0,.19,.12,37.59-18.42,56.03-27.36,27.63-3.45,5.93-65.34-5.17-71.17Z"></path><path fill="#ffae73" d="M421.86,320c.08,.05-9.07,2.8-15.19,.41-5.76-2.24-10.11-10.6-10.03-10.6,2.62-.11,5.49-2.12,7.71-15.37l1.12,.35,18.74,5.95s-1.36,5.3-2.24,10.35c-.74,4.24-1.14,8.3-.12,8.9Z"></path><path fill="#f9924f" d="M424.22,300.75s-.75,2.86-1.84,8.21c-10.77-1.71-15.39-9.03-16.9-14.16l18.74,5.95Z"></path><path fill="#ffae73" d="M427,306.01s-25.65-3.04-23.25-17.1c2.4-14.05,.7-23.91,17.17-22.56,16.48,1.35,18.74,7.13,19.23,11.99,.49,4.86-6.42,28.09-13.15,27.66Z"></path><path fill="#1e3865" d="M439.23,270.65s-16.42,12.47-27.59,13.47c-11.17,1-15.4-2.16-15.4-2.16,0,0,6.58-4.82,10.55-12.59,1.17-2.29,3.64-3.87,6.48-4.08,7.97-.6,23.09-.88,25.96,5.36Z"></path><path fill="#1e3865" d="M428.96,269.53s5.49,4.68,7.22,8.16c1.67,3.35,2.17,11.37,.84,14.55,0,0,8.56-14.67,3.72-21.8-5.13-7.56-11.78-.91-11.78-.91Z"></path><path fill="#ff912b" d="M443.44,353.32c-.79,45.78-.23,36.21-5.91,40.55-1.37,1.05-5.22,1.67-10.28,1.96-15.92,.93-43.91-1.39-44.97-3.99-3.67-8.98-1.08-11.76-4.13-25.51-.32-1.46-.71-3.04-1.18-4.77-2.55-9.44-5.04-12.65,4.03-27.81,8.22-13.73,16.77-24.88,17.53-24.47,21.68,11.36,23.43,1.82,23.43,1.82,0,0,21.86,19.89,21.47,42.22Z"></path><path fill="#214d9a" d="M498.97,471.37l-16.68,39.54s-4.52,.38-8.86-.72c-3.99-1.02-8.56-3.68-8.56-3.68,0,0,4.64-42.46,13.29-66.84l20.81,31.69Z"></path><path fill="#ff912b" d="M421.97,311.1s22.31,3.34,24.93,11.81c2.62,8.47,11.22,59.88,11.22,59.88,0,0-6.29,5.42-11.53,.79-5.24-4.62-16.47-48.1-16.47-48.1l-8.14-24.38Z"></path><path fill="#fc7600" d="M427.25,395.83c-15.92,.93-43.91-1.39-44.97-3.99-3.67-8.98-1.08-11.76-4.13-25.51l7.69-19.06s-1.28,21.23,5.82,26.81c7.09,5.59,29.07,10.79,32.52,15.45,1.66,2.24,2.76,4.48,3.08,6.29Z"></path><path fill="#ffae73" d="M409.02,386.9s15.71-3.08,18.24-1.85c2.53,1.23,8.73,5.71,9.5,7.26,.77,1.56-5.64-1.18-7.73-1.68-1.35-.32-4.91,.77-6.67,1.29-7.41,2.18-11.96,1.05-11.96,1.05l-1.39-6.08Z"></path><path fill="#ff912b" d="M398.53,309.28s-21.09,1.14-28.39,10.11c-10.28,12.63-30.69,66.49-19.01,73.67,13.16,8.09,59.88,2.13,59.88,2.13,0,0,1.56-6.41-.6-9.51-2.16-3.1-37.32-8.12-38.94-9.55-1.62-1.43,20.29-27.89,20.3-32.18,0-4.29,6.77-34.68,6.77-34.68Z"></path><path fill="#ffae73" d="M428.02,388.9s3.29,3.74,4.37,4.19c1.08,.45,1.78,.34,1.78,.34l-2.22-3.52-3.93-1.01Z"></path><path fill="#ffae73" d="M427.26,385.05l9.57,4.1s-.41,.59-1.59,.54-4.15-1.01-4.15-1.01l-3.83-3.63Z"></path></g><polygon fill="#1e3865" points="508.96 394.7 409.01 394.67 409.01 396.62 508.07 396.65 508.96 394.7"></polygon><polygon fill="#1e3865" points="432.38 396.63 508.07 396.65 530.86 346.74 455.29 346.72 432.38 396.63"></polygon><path fill="#fff" d="M488.97,371.68c.57-1.75-.58-3.18-2.57-3.18-1.99,0-4.07,1.42-4.64,3.18-.57,1.75,.58,3.18,2.57,3.18,1.99,0,4.07-1.42,4.64-3.18Z"></path></g><g><path fill="#0b3563" d="M1001.2,584.87c-10.2-2.99-17.25,.78-17.25,.78-29.36,1.06-30.45,27.59-27,37.47,4.84,13.87-12.29,24.8,6.71,30.41,22.04,6.51,40.53-1.21,39.27,2.14,69.69,4.84,21.47-64.01-1.72-70.8Z"></path><path fill="#ff912b" d="M970.75,713.9s-2.79,4.87-7.85,10.47c-6.1,6.73-38.11-9.25-35.35-10.47,2.76-1.22,18.84-42.07,22.67-47.2,3.83-5.13,16.88-7.8,16.88-7.8l3.64,55Z"></path><path fill="#134482" d="M1078.77,989.44s8.83,7.11,7.11,12.16c-1.72,5.05-9.7,8.42-10.77,14.59-1.08,6.17-5.39,9.54-9.26,9.54h-18.49s-2.85-4.34,4.04-5.65c6.9-1.31,9.49-8.56,9.06-15.3-.43-6.73,.65-15.71,.65-15.71l14.65-2.99,3.02,3.37Z"></path><path fill="#173157" d="M1003.99,992.46s3.18,30.11-.7,31.8l-49.64-.09s0-5.05,7.97-6.17c7.97-1.12,21.98-5.24,24.35-14.4,2.37-9.17,18.02-11.13,18.02-11.13Z"></path><path fill="#ff912b" d="M1042.18,693.59s.74,9.19,0,20.23c-.49,7.31-8.88,17.11-10.07,19.53-2.99,6.08-6.36,7.07-6.36,7.07l-26.06,5.63-9.16,1.98-28.9-7.61s-13.16-32.39-7.88-50.62c5.28-18.23,13.36-30.89,13.36-30.89,0,0,19.64-3.89,54.28-1.73l20.78,36.42Z"></path><path fill="#fc7600" d="M1044.66,714.07c-.49,7.31-11.36,16.85-12.56,19.28-2.99,6.08-6.36,7.07-6.36,7.07l-26.06,5.63-4.71-11.89s38.08-8.82,31.95-39.89l17.72,19.81Z"></path><path fill="#1e3865" d="M963.46,745.33s-14.31,39.27-15.23,52.64c-.92,13.37,27.36,189.94,28.49,196.1,1.07,5.81,9.25,9.51,9.25,9.51,0,0,3.76,1.96,9.13,.62,7.45-1.85,9.8-4.07,9.8-4.07,0,0,11.14-125.93,4.25-170.91-6.89-44.98-6.97-83.89-6.97-83.89h-38.72Z"></path><path fill="#214d9a" d="M1024.09,744.16s21.83,25.82,23.86,43.28c2.03,17.46,3.19,78.77,7.53,95.79,4.34,17.02,20.26,49.77,20.26,102.84,0,0-1.66,3.04-6.77,4.66-1.64,.52-3.83,1.02-5.95,1.45-4.22,.85-8.54-.96-10.47-4.38-10.77-19.12-45.07-80.78-46.83-93.57-1.24-9.06-12.08-69-35.7-104.18-5.67-8.45,3.48-42.03,3.48-42.03l50.58-3.86Z"></path><path fill="#1e3865" d="M961.18,739.27s5.74,4.01,17.16,4.21c13.63,.24,47.41-3.06,47.41-3.06,0,0,1.5,3.7,1.44,7.6,0,0-41.26,9.17-65.16,1.34,0,0-3.08-5.11-.85-10.09Z"></path><path fill="#fff" d="M975.07,753.84c-3.43,0-6.22-2.78-6.22-6.21s2.79-6.21,6.22-6.21,6.22,2.78,6.22,6.21-2.79,6.21-6.22,6.21Zm0-10.6c-2.29,0-4.16,1.97-4.16,4.39s1.87,4.39,4.16,4.39,4.16-1.97,4.16-4.39-1.87-4.39-4.16-4.39Z"></path><polygon fill="#c23b35" points="1004.87 765.13 942.86 765.64 912.35 702.42 974.36 701.91 1004.87 765.13"></polygon><path fill="#ffae73" d="M996.76,736.56l-4.54-4.92s-3.08-2.42-5.31-2.83c-2.23-.41-6.94-2.81-7.4-2.13-.46,.68,3.62,5.49,3.62,5.49l.21,.03c-4.68,3.1-16.5,.36-17.96,1.63-1.77,1.53,2.43,4.85,4.69,6.72,2.25,1.86,8.7,4.97,13.73,3.59,3.67-1.01,9.46-2.03,9.46-2.03l3.51-5.53Z"></path><path fill="#ffae73" d="M917.02,713.54s3.9-3.9,6.38-2.03c2.48,1.87-.65,11.09-3.01,10.15-2.36-.94-4.72-6.98-3.37-8.12Z"></path><path fill="#ff912b" d="M1021.39,657.17s17.75,1.73,30.49,22.13c10.05,16.09,27.22,45.76,20.74,54.14-2.84,3.68-30.11,16.77-82.71,9.29,0,0,.83-5.86,5.07-8.57,0,0,44.26-12.53,44.19-15.02-.14-4.71-5.98-8.79-30.71-30.59-6.72-5.93,12.93-31.37,12.93-31.37Z"></path><path fill="#ffae73" d="M1007.73,658c.61-.72-.18-3.02-1.15-7.3-.88-3.88-2.38-9.88-2.35-16.63l-1.31,.19-22,3.26s.5,5.19,.52,10.07c0,.04,0,.08,0,.12,.03,4.24-1.3,10.65,.32,11.49,8.34,4.31,23.62,1.56,25.97-1.21Z"></path><path fill="#f48f4e" d="M980.92,637.53s.44,7.31,.45,12.2c12.31-.26,18.88-10.8,21.55-15.46l-22,3.26Z"></path><path fill="#ffae73" d="M979.6,646.25s28.84-3.62,26.01-19.42c-2.83-15.8-1.02-26.91-19.55-25.26-18.53,1.64-21.02,8.17-21.53,13.65-.51,5.48,7.5,31.57,15.08,31.04Z"></path><path fill="#0b3563" d="M972.88,603.02s11.22,17.43,23.81,18.47c12.58,1.04,17.31-2.55,17.31-2.55,0,0-10.44-5.19-14.42-16.26,0,0-22.35-9.32-26.7,.33Z"></path><path fill="#0b3563" d="M975.1,604.25s-5.49,2.75-7.22,6.84c-1.69,4-2.81,9.15-1.27,15.05,0,0-8.21-11.76-2.83-19.83,5.71-8.55,11.31-2.06,11.31-2.06Z"></path></g><path fill="#1e3865" d="M12.1,1023.46H1610.23c1.25,0,2.27,1.02,2.27,2.27h0c0,1.25-1.02,2.27-2.27,2.27H12.1c-1.25,0-2.27-1.02-2.27-2.27h0c0-1.25,1.02-2.27,2.27-2.27Z"></path></g></g></g></svg>